<svg data-v-c7dafcf4="" xmlns="http://www.w3.org/2000/svg" xmlns:xlink="http://www.w3.org/1999/xlink" width="48" height="48" viewBox="0 0 48 48"><defs data-v-c7dafcf4="">
<path data-v-c7dafcf4="" id="bag" d="M7 9a1 1 0 1 1-2 0V4a4 4 0 1 1 8 0v5a1 1 0 0 1-2 0V4a2 2 0 1 0-4 0v5zM2 7v19h14V7H2zm0-2h14a2 2 0 0 1 2 2v19a2 2 0 0 1-2 2H2a2 2 0 0 1-2-2V7a2 2 0 0 1 2-2z"></path>
<path data-v-c7dafcf4="" id="bag" d="M7 9a1 1 0 1 1-2 0V4a4 4 0 1 1 8 0v5a1 1 0 0 1-2 0V4a2 2 0 1 0-4 0v5zM2 7v19h14V7H2zm0-2h14a2 2 0 0 1 2 2v19a2 2 0 0 1-2 2H2a2 2 0 0 1-2-2V7a2 2 0 0 1 2-2z"></path></defs><use data-v-c7dafcf4="" fill="currentColor" fill-rule="nonzero" transform="translate(15 10)" xlink:href="#bag"></use></svg>