<?xml version="1.0" encoding="utf-8"?>
<!-- Generator: Adobe Illustrator 27.1.1, SVG Export Plug-In . SVG Version: 6.00 Build 0)  -->
<svg version="1.1" id="Layer_1" xmlns="http://www.w3.org/2000/svg" xmlns:xlink="http://www.w3.org/1999/xlink" x="0px" y="0px"
	 viewBox="0 0 280 400" style="enable-background:new 0 0 280 400;" xml:space="preserve">
<style type="text/css">
	.st0{opacity:0;fill:#FFFFFF;}
	.st1{fill:#F4F4F4;}
	.st2{fill:#D4CBC7;}
	.st3{fill:#90A035;}
	.st4{fill:#C4CE6A;}
	.st5{fill:#683229;}
	.st6{fill:#B25246;}
	.st7{fill:#451400;}
</style>
<rect x="0" class="st0" width="280" height="400"/>
<g id="Meh-Cado">
	<path class="st1" d="M277.7,153.29c-2.23-20.75-7.22-41.04-12.69-61.17c-4.35-16.01-8.73-32.56-18.96-46.11
		c-4.7-6.23-10.22-9.98-17.18-13.53c-8.7-4.43-17.77-8.17-27.14-11c-19.62-5.92-40.86-8.31-61.34-7.8
		c-13.96,0.35-28.06,2.53-41.78,5.88c-4.42,0.83-8.82,1.81-13.22,2.98C67.82,27.23,50.54,33.37,37.36,46.1
		c-6.72,6.5-11.14,13.89-14.92,22.29c-3.45,7.69-7.06,15.33-9.99,23.23C6.06,108.85,3.2,126.57,2.06,144.8
		c-1.23,19.73-1.28,39.56,0.64,59.25c1.93,19.82,3.2,40.35,11.58,58.72c4.07,8.92,7.69,17.85,11.36,26.92
		c2.91,7.18,7.62,12.99,13.51,18.07c12.83,11.08,27.32,21.22,43.19,27.64c16.23,6.57,33.89,8.59,51.34,7.43
		c19.47-1.29,38.56-5.56,57.96-7.4c8.36-0.79,16.94-1.21,24.85-4.21c8.18-3.1,14.95-8.74,21.39-14.43
		c6.82-6.02,13.26-12.73,18.11-20.4c4.71-7.45,6.31-15.49,8.2-23.94C272.94,233.42,282.01,193.43,277.7,153.29z"/>
	<path class="st2" d="M209.93,380.16c-2.87-0.9-5.85-1.5-8.82-1.96c-13.35-2.08-26.93-2.63-40.43-2.71
		c-13.86-0.09-27.77,0.16-41.62,0.68c-6.83,0.26-13.65,0.72-20.42,1.68c-4.48,0.63-10.01,1.15-13.37,4.62
		c-1.22,1.25-1.87,3.04-0.78,4.6c1.4,2.01,4.31,2.23,6.48,2.72c3.11,0.71,6.16,1.7,9.28,2.38c3.26,0.71,6.46,0.76,9.78,0.85
		c7.24,0.2,14.48,0.66,21.72,0.52c7.14-0.14,14.29-0.37,21.43-0.58c7.3-0.22,14.59-0.48,21.89-0.73c0.76-0.03,1.51-0.06,2.27-0.11
		c3.31,0.11,6.62,0.2,9.92,0.12c5.62-0.15,11.28-0.73,16.79-1.85c2.58-0.52,5.15-1.17,7.61-2.11c1.45-0.55,3.3-1.28,3.83-2.9
		C216.52,382.27,212.07,380.83,209.93,380.16z"/>
	<path class="st3" d="M235.03,201.21c-4.55-10.84-10.9-20.73-16.98-30.75c-6.16-10.15-12.21-20.65-15.17-32.25
		c-1.73-6.79-2.52-13.75-3.26-20.71c-0.48-4.49-1.03-8.95-1.72-13.4c-0.02-1.03-0.04-2.05-0.08-3.08
		c-0.43-10.94-1.98-22.11-7.08-31.93c-1.53-2.95-3.41-5.7-5.56-8.27c-4.22-8.35-10.22-16.57-19.51-19.12
		c-5.37-1.47-11.39-1.46-16.88-0.76c-1.44,0.18-2.86,0.43-4.26,0.74c-5.63,0.48-11.07,2.27-16.09,4.86
		c-12,6.19-21.36,16.3-29.01,27.23c-3.79,5.42-7.57,11.08-10.34,17.1c-2.26,4.91-3.91,10.05-5.23,15.28
		c-1.71,4.42-2.84,9.05-3.83,13.69c-1.41,6.63-2.79,13.19-5,19.61c-4.54,13.24-10.58,25.92-14.61,39.34
		c-3.48,11.57-5.36,23.77-5.42,35.89c-1.46,5.14-2.41,10.43-2.59,15.78c-0.41,12.16,2.99,24.19,8.58,34.91
		c3.24,6.21,7.22,12.08,11.76,17.54c1.62,2.91,3.39,5.73,5.37,8.42c7.45,10.13,17.31,17.79,29.34,21.67
		c4.16,1.34,8.43,2.21,12.74,2.71c11.78,3.86,24.38,5.13,36.7,3.73c6.97-0.79,13.83-2.3,20.57-4.22c5.78-1.64,11.44-3.56,16.89-6.1
		c18.76-8.76,33.47-24.33,41.04-43.6C243.4,245.18,243.49,221.38,235.03,201.21z"/>
	<path class="st4" d="M243.52,228.13c-0.53-6.98-1.95-13.86-3.12-20.75c-1.18-6.94-2.86-13.68-5.53-20.21
		c-2.65-6.51-6-12.69-9.93-18.51c-3.64-5.4-7.91-10.3-11.84-15.47c-3.77-4.97-7.06-10.28-8.79-16.32c-1.72-5.98-2.6-12.23-3.26-18.4
		c-1.29-12.15-1.7-24.45-4.24-36.44c-2.6-12.27-7.91-23.7-16.82-32.66c-7.91-7.94-18.36-12.95-29.74-12.02
		c-10.41,0.85-20.02,6.04-27.05,13.68c-3.66,3.97-6.58,8.54-8.67,13.51c-0.92,2.18-1.64,4.41-2.22,6.68
		c-1.11,2.18-2.04,4.45-2.68,6.85c-1.7,6.37-1.72,13.15-2.48,19.67c-1.72,14.58-4.38,29.06-7.52,43.4
		c-3.11,14.18-6.86,28.19-9.18,42.54c-2.22,13.71-3.41,27.77-2.01,41.64c1.45,14.33,5.52,28.22,12.18,41
		c6.13,11.76,14.84,22.24,24.98,30.76c9.56,8.03,21.08,15.25,33.64,17.08c10.54,1.54,21.41-0.24,31.46-3.53
		c10.76-3.52,21.04-8.87,29.82-16.05c4.05-3.31,7.71-7.05,10.81-11.27c3.3-4.49,5.46-9.52,7.07-14.84
		c1.92-6.35,2.83-12.93,3.62-19.5C242.86,242.01,244.06,235.17,243.52,228.13z"/>
	<path class="st3" d="M125.23,34.85c-0.24-1.09-0.85-1.83-1.65-2.33c0.04-0.01,0.08-0.03,0.11-0.04c0.85-0.28,0.5-1.48-0.36-1.32
		c-0.91,0.17-1.81,0.35-2.71,0.55c-0.1,0-0.2-0.02-0.3-0.02c-3.5-0.01-7.18,0.93-10.51,1.9c-14.52,4.23-26.58,13.95-37.1,24.49
		c-5.99,6-11.46,12.45-16.96,18.89c-4.41,5.16-9.44,9.91-13.23,15.56c-0.79,1.18-1.44,2.41-1.95,3.74
		c-0.48,1.28,0.76,2.47,1.97,2.44c0.04,0.03,0.08,0.06,0.12,0.09c0.51,0.36,1.01,0.41,1.44,0.26c7.61,1.85,15.18,0.78,22.52-1.88
		c7.28-2.64,14.35-6.46,20.81-10.72c12.62-8.32,21.42-20.34,29.84-32.64c2.36-3.45,4.61-6.98,6.22-10.86
		C124.47,40.61,125.81,37.48,125.23,34.85z"/>
	<path class="st5" d="M216.94,217.91c-3.83-10.72-11.46-19.72-21.33-25.38c-11.57-6.63-25.71-8.47-38.48-5.18c-0.01,0-0.02,0-0.03,0
		c-5.54-0.28-10.38,3.04-14.43,6.48c-1.8,1.22-3.53,2.58-5.16,4.08c-1.17,1.08-2.25,2.24-3.28,3.44c-1.7,1.66-3.32,3.4-4.75,5.28
		c-7.7,10.06-10.66,22.75-8.34,35.18c2.2,11.76,8.82,22.66,17.65,30.65c4.17,3.77,8.88,7.01,14.11,9.1
		c4.72,1.89,9.84,2.77,14.92,2.88c10.46,0.24,21.15-2.73,30.03-8.25c4.28-2.66,8.2-5.99,11.3-9.97c3.42-4.37,5.95-9.51,7.72-14.75
		C220.49,240.68,220.79,228.67,216.94,217.91z"/>
	<path class="st6" d="M206.02,233.22c-0.27-1.7-0.68-3.37-1.18-5.02c-1.07-3.53-2.56-6.97-4.4-10.17
		c-2.22-3.86-4.88-7.48-7.93-10.72c-1.48-1.57-3.09-3.02-4.76-4.38c-0.87-0.7-1.76-1.37-2.69-1.99c-0.5-0.33-0.9-0.59-1.33-0.75
		c-1.31-0.74-2.92-0.97-4.26-0.19c-1.52,0.89-2.07,2.66-2.23,4.31c-0.41,4.12,1.74,8.22,4.17,11.38c2.79,3.62,6.54,6.34,9.57,9.75
		c2.8,3.15,5.17,6.77,6.68,10.72c0.72,1.89,1.42,3.87,3.47,4.67c1.92,0.75,4.12,0,4.88-1.98
		C206.69,237.1,206.31,235.02,206.02,233.22z"/>
	<g>
		<path class="st7" d="M203.73,190.59c-5.07-3.66-10.86-6.33-16.81-8.2c-12.7-3.99-27.07-4.36-39.31,1.34
			c-2.64,1.23-5.05,2.8-7.33,4.58c-2.82,1.9-5.43,4.08-7.77,6.55c-6.29,6.67-10.56,15.09-12.6,24c-2.07,9.04-1.97,18.52,0.15,27.54
			c2.1,8.96,6.26,17.43,12.25,24.43c6.16,7.2,14.33,12.49,23.43,15.16c14.32,4.2,29.47,1.51,42.88-4.47
			c6.91-3.09,13.34-6.95,17.36-13.57c3.55-5.86,5-12.8,6.26-19.45c2.68-14.19,2.99-29.07-4.33-42.01
			C214.4,200.31,209.5,194.75,203.73,190.59z M220.07,238.68c-0.73,6.75-2.13,13.66-4.29,20.1c-2.01,6-5.46,11.22-10.85,14.68
			c-6.54,4.2-14.26,7.04-21.82,8.73c-6.77,1.51-14.07,1.89-20.65,0.72c-8.81-1.57-16.85-5.5-23.24-11.43
			c-6.16-5.72-10.7-13.06-13.38-20.87c-2.82-8.21-3.77-16.46-2.86-25.16c0.4-3.85,1.4-8.29,2.81-12.23
			c1.38-3.86,3.33-7.66,5.77-11.16c2.46-3.53,5.49-6.72,8.9-9.44c0.63,0.08,1.28-0.14,1.81-0.58c9.66-7.93,23.14-9.68,35.16-7.76
			c11.93,1.91,23.37,7.05,31.54,16.1c4.78,5.3,8.34,11.59,10.13,18.51C220.75,225.34,220.78,232.1,220.07,238.68z"/>
		<path class="st7" d="M145.29,143.07c1.08,0.03,2.17,0.06,3.25,0c1.24-0.07,2.39,0.09,3.61,0.21c1.66,0.17,3.33,0.41,5,0.32
			c1.54-0.08,3.1-0.13,4.64-0.3c0.94-0.1,1.89-0.2,2.78-0.51c0.25-0.09,0.5-0.21,0.74-0.32c-0.01,0,0.1-0.05,0.2-0.1
			c0.11-0.04,0.49-0.22,0.58-0.27c0.08-0.05,0.4-0.35,0.57-0.52c0.58-0.62,0.56-1.6-0.01-2.23c-0.13-0.13-0.32-0.32-0.37-0.36
			c-0.24-0.19-0.5-0.29-0.78-0.41c-0.16-0.06-0.42-0.17-0.46-0.19c-0.15-0.06-0.31-0.15-0.47-0.2c-0.88-0.27-1.87-0.32-2.78-0.33
			c-1.58-0.02-3.16,0.13-4.74,0.18c-1.81,0.06-3.58,0.28-5.33,0.76c-1.16,0.32-2.26,0.78-3.45,1.02c-1.12,0.22-2.21,0.54-3.32,0.82
			C143.6,141,143.92,143.03,145.29,143.07z"/>
		<path class="st7" d="M166.63,139.32c0.01,0.01,0.01,0.02,0.02,0.03C166.79,139.49,166.86,139.56,166.63,139.32z"/>
		<path class="st7" d="M165.49,138.57c0.01,0,0.01,0.01,0.02,0.01C165.64,138.64,165.7,138.66,165.49,138.57z"/>
		<path class="st7" d="M166.67,141.58c-0.01,0.01-0.02,0.03-0.03,0.04C166.85,141.4,166.8,141.45,166.67,141.58z"/>
		<path class="st7" d="M130.55,108.21c0.06,0.15,0.12,0.29,0.18,0.44c0.2,0.34,0.51,0.59,0.87,0.75c0.14,0.06,0.29,0.09,0.45,0.11
			c0.03,0.05,0.06,0.1,0.09,0.15c0.3,0.45,0.66,0.79,1.17,1c0.53,0.23,1.01,0.23,1.59,0.12c0.85-0.15,1.7-0.5,2.4-0.99
			c0.76-0.54,1.5-1.2,1.9-2.07c0.4-0.86,0.65-1.77,0.53-2.73c-0.1-0.79-0.23-1.29-0.57-2.02c-0.23-0.5-0.6-0.94-0.95-1.36
			c-0.17-0.13-0.34-0.27-0.52-0.4c-0.29-0.19-0.61-0.29-0.95-0.3c-0.59-0.08-1.09,0.03-1.63,0.3c-0.81,0.4-1.55,0.97-2.11,1.69
			c-0.16,0.21-0.3,0.43-0.43,0.65c-0.16,0.12-0.32,0.26-0.47,0.38c-0.18,0.15-0.33,0.33-0.48,0.51c-0.17,0.22-0.36,0.44-0.51,0.68
			c-0.16,0.26-0.26,0.56-0.37,0.84c-0.15,0.39-0.18,0.8-0.2,1.22c0.02-0.18,0.05-0.35,0.07-0.53c-0.04,0.22-0.07,0.44-0.09,0.66
			c0.02-0.17,0.05-0.34,0.07-0.52c-0.05,0.31-0.09,0.63-0.12,0.94C130.5,107.89,130.53,108.05,130.55,108.21z"/>
		<path class="st7" d="M175.73,110.06c0.11,0.43,0.25,0.86,0.46,1.28c0.23,0.47,0.86,0.93,1.36,1.04c0.56,0.13,1.26,0.12,1.75-0.23
			c0.1-0.07,0.2-0.14,0.31-0.21c1.43-0.43,2.89-1.4,3.21-2.94c0.18-0.88,0.04-1.72-0.34-2.52c-0.01-0.05-0.01-0.11-0.02-0.16
			c-0.17-0.66-0.49-1.13-0.9-1.65c0.12,0.15,0.23,0.3,0.35,0.45c-0.35-0.53-0.83-1.03-1.4-1.33c-0.78-0.4-1.56-0.52-2.43-0.35
			c-0.86,0.17-1.52,0.76-2,1.46c-0.45,0.65-0.58,1.42-0.67,2.19c-0.04,0.32-0.04,0.64-0.02,0.95c0.04,0.6,0.1,1.22,0.27,1.8
			C175.66,109.92,175.7,109.99,175.73,110.06z"/>
		<path class="st7" d="M87.07,69.46c6.34-7.25,11.57-15.4,18-22.57c3.66-4.08,7.52-8,12.54-10.37c0.97-0.46,0.27-2.18-0.74-1.76
			c-9.11,3.77-15.44,11.51-21.8,18.7c-3.13,3.55-6.32,7.05-9.42,10.62c-3.37,3.87-6.57,7.93-10.07,11.69
			c-3.66,3.93-7.81,7.49-12.55,10.06c-1.58,0.86-0.18,3.25,1.41,2.41c4.13-2.2,7.95-5.12,11.49-8.15
			C79.83,76.74,83.67,73.34,87.07,69.46z"/>
		<path class="st7" d="M74.3,256.72c-0.62-1.1-1.13-2.39-1.75-3.6c-0.67-1.31-1.1-2.62-1.53-4.31c-1.24-4.89-1.33-10.17-1.38-15.2
			c-0.06-5.37,0.26-10.71,0.83-16.05c0.59-5.45,1.74-10.8,2.37-16.24c0.21-1.77-2.68-2.54-3.41-0.92c-2.03,4.54-3.1,9.36-3.9,14.26
			c-0.87,5.34-1.34,10.73-1.44,16.13c-0.11,5.58,0.14,11.26,0.99,16.78c0.4,2.59,1.35,5.2,2.86,7.39c-3.54,2.98-5.46,8.6-1.99,12.37
			c0.46,0.5,1.42,0.66,2,0.26c0.72-0.5,1.34-1.08,1.87-1.73c1.15,1.86,2.8,3.27,4.96,3.66c1.95,0.35,3.31-1.09,3-3
			C77.23,263.13,75.99,259.71,74.3,256.72z M67.58,263.56c-0.24-1.04-0.05-2.19,0.41-3.23c0.07,0.63,0.18,1.26,0.34,1.88
			C68.13,262.69,67.89,263.15,67.58,263.56z"/>
		<path class="st7" d="M246.48,199.97c-0.12-0.45-0.23-0.9-0.35-1.35c-1.84-6.67-4.39-13.15-7.49-19.34
			c-6.54-13.1-15.71-24.59-24.57-36.16c-1.45-1.89-2.85-3.81-4.22-5.75c-1.88-4.26-2.94-8.83-3.1-13.51
			c-0.13-3.59,0.24-7.12,0.49-10.69c0.26-3.69,0.08-7.4-0.32-11.07c-0.12-1.07-0.26-2.14-0.41-3.21c-0.04-0.27-0.06-0.54-0.1-0.8
			c-0.07-0.44-0.14-0.9-0.23-1.38c-0.9-5.57-2.19-11.07-3.55-16.55c-1.49-5.98-2.91-11.96-5.28-17.66
			c-2.46-5.91-5.52-11.59-9.43-16.68c-1.93-2.51-3.97-5.04-6.51-6.95c-2.3-1.73-4.8-3.08-7.43-4.26c-3.04-1.36-6.36-2.04-9.61-2.75
			c-3.46-0.76-6.98-1.34-10.52-1.6c-1.88-0.14-3.81-0.21-5.75-0.2c0.05-0.16,0.09-0.33,0.11-0.51c0.41-3.97-0.28-8.19-1.59-11.93
			c-1.06-3.02-2.38-6.44-3.6-9.1c0-0.01-0.01-0.02-0.03-0.08c-0.18-0.44-0.28-0.71-0.61-1.07c-0.34-0.37-0.78-0.63-1.26-0.79
			c-0.83-0.26-1.72-0.13-2.53,0.16c-0.82,0.3-1.56,0.78-2.33,1.18c-0.04,0.02-0.05,0.02-0.08,0.04c-0.11,0.04-0.22,0.08-0.33,0.13
			c-0.1,0.04-0.19,0.08-0.28,0.13c-0.01,0-0.07,0.02-0.2,0.07c-0.5,0.15-1.01,0.25-1.32,0.29c-1.69,0.21-2.52,1.62-1.83,3.19
			c0.29,0.66,0.15,1.74,0.21,2.46c0.08,1,0.09,2,0.23,2.99c0.09,0.6,0.2,1.19,0.31,1.79c-0.46,0.72-0.99,1.4-1.61,2
			c-0.94,0.9-2.05,1.33-3.18,1.93c-2.32,1.23-4.72,2.44-7.18,3.38c-0.18,0.07-0.37,0.13-0.56,0.19c-2.52,0.02-5.03,0.51-7.53,1.17
			c-3.74,0.99-7.46,2.2-11.14,3.39c-7.55,2.44-14.72,5.51-21.1,10.3C67.28,51.43,58.26,65.69,48.82,79.26
			c-2.81,4.04-5.88,8.11-7.79,12.68c-0.8,1.92-2.12,3.17-3.77,4.41c-1.66,1.24-3.4,2.36-5.05,3.6c-1.17,0.88-1.34,2.16-0.43,3.3
			c2.52,3.16,6.78,3.79,10.6,3.48c3.98-0.33,7.95-1.25,11.83-2.16c9.3-2.18,18.28-6.03,26.63-10.64c0.11-0.06,0.23-0.13,0.34-0.2
			c-0.03,0.14-0.07,0.29-0.1,0.43c-1.78,7.33-3.21,14.75-5.2,22.03c-1.04,3.83-2.15,7.64-3.35,11.42c-1.2,3.8-2.98,7.32-4.38,11.03
			c-2.7,7.16-6.02,14.07-8.9,21.16c-2.79,6.87-5.35,13.83-7.55,20.91c-2.13,6.85-3.94,13.82-5.03,20.92
			c-1.06,6.92-1.3,13.92-1.08,20.91c0.48,15.66,3.28,31.53,9.29,46.06c4.94,11.92,14.09,21.99,23.7,30.37
			c9.9,8.64,21.24,16.06,33.61,20.65c-0.79,2.71-0.8,5.75-0.95,8.48c-0.23,4.22-0.32,8.43-0.24,12.66c0.04,2.09,0.18,4.13,0.45,6.21
			c0.27,2.03,0.72,4.08,0.71,6.13c-0.02,3.88,0.14,7.73,0.27,11.61c0.05,1.46,0.09,2.92,0.07,4.38c0,0.11-0.01,0.23-0.01,0.34
			c-0.22-0.05-0.44-0.09-0.67-0.11c-3.18-0.3-6.65,1.53-9.04,3.48c-2.61,2.14-3.7,6.53-1.88,9.54c1.9,3.13,5.84,2.55,8.54,0.95
			c1.48-0.88,2.74-2.06,3.84-3.37c1.53-1.82,2.95-3.74,3.87-5.95c1.33-3.16,0.91-6.81,0.72-10.15c-0.13-2.25-0.32-4.49-0.55-6.74
			c-0.25-2.44-0.88-4.81-0.83-7.28c0.12-5.67-0.02-11.33,0.08-16.99c0.05-2.66,0.17-5.32,0.32-7.98c0.07-1.21,0.15-2.42,0.14-3.61
			c4.8,1.34,9.76,2.11,14.69,2.69c6.98,0.81,14.05,1.13,21.08,0.95c6.53-0.17,13.22-0.58,19.63-1.93c0.57-0.12,1.14-0.26,1.71-0.4
			c0.11,0.72,0.23,1.45,0.32,2.2c0.3,2.34,0.53,4.66,0.59,7.02c0.13,5.21-0.41,10.38-0.65,15.58c-0.19,4.23-0.99,8.38-1.04,12.61
			c-0.04,3.26-0.01,6.61,0.51,9.83c0.35,2.18,1.54,4.22,2.82,5.97c1.12,1.54,2.32,3.11,3.81,4.31c2.33,1.89,5.86,3.7,8.77,1.92
			c3.2-1.97,2.98-7.35,0.83-9.98c-1.87-2.28-5.17-3.99-8.05-4.49c-0.96-0.16-1.96-0.21-2.89-0.01c0-0.02,0-0.04-0.01-0.05
			c-0.06-0.64-0.11-1.28-0.15-1.92c-0.22-3.33-0.18-6.66-0.3-10c-0.06-1.64-0.26-3.24,0.04-4.88c0.37-2.02,0.92-4,1.24-6.03
			c0.75-4.83,0.82-9.92,0.5-14.79c-0.18-2.74-0.36-5.96-1.36-8.72c4.09-1.33,8.09-2.98,12-4.7c6.28-2.75,12.4-5.85,18.43-9.09
			c5.87-3.15,11.4-6.59,16.36-11.08c10.07-9.1,17.92-21.38,21.49-34.51c0.93-3.41,1.55-6.88,1.93-10.39
			c0.39-3.56,0.07-7.11,0.24-10.67c0.19-4.13,0.27-8.27,0.21-12.41c3.61-3.25,5.99-7.87,5.98-12.8
			C255.78,209.16,251.71,203.23,246.48,199.97z M112.45,370.5c-0.01,0.02-0.01,0.04-0.02,0.06
			C112.44,370.54,112.45,370.52,112.45,370.5C112.45,370.5,112.45,370.5,112.45,370.5z M140.43,10.8
			C140.43,10.8,140.44,10.81,140.43,10.8C140.35,10.79,140.35,10.79,140.43,10.8z M139.75,11.81c0.26-0.17,0.5-0.35,0.75-0.54
			c0.04-0.03,0.08-0.06,0.13-0.1c0.09,0.17,0.18,0.35,0.26,0.53c0.31,0.7,0.55,1.44,0.78,2.18c0.53,1.7,0.77,3.39,0.98,5.15
			c0.43,3.67,0.77,7.43,1.55,11.05c0.01,0.04,0.02,0.07,0.03,0.1c-1.84,0.12-3.68,0.33-5.48,0.65c0.03-0.48,0.04-0.95,0.05-1.4
			c0.02-2.13-0.24-4.24-0.6-6.34c-0.35-2.08-0.81-4.13-1.25-6.19c-0.24-1.12-0.84-2.54-1.01-3.85
			C137.28,12.99,138.6,12.56,139.75,11.81z M129.12,28.95c0.06-0.46,0.02-0.92-0.13-1.33c0.79-0.42,1.53-0.9,2.19-1.47
			c0.95-0.82,1.87-1.75,2.71-2.76c0.38,1.79,0.73,3.6,0.9,5.42c0.08,0.95,0.11,1.89,0.1,2.84c0,0.02,0,0.05,0,0.07
			c-0.39,0.11-0.78,0.2-1.16,0.33c-1.92,0.61-3.78,1.34-5.62,2.12C128.54,32.45,128.88,30.71,129.12,28.95z M57.95,98.03
			c-4.42,1.1-8.88,2.12-13.35,2.99c-2.61,0.51-5.45,0.83-7.99,0.03c1.85-1.92,4.09-3.58,6.11-5.24c0.69-0.57,1.49-1.03,2.14-1.66
			c0.79-0.77,1.47-1.73,2.12-2.61c1.26-1.7,2.48-3.44,3.67-5.19c4.73-6.95,9.54-13.88,14.42-20.72c4.5-6.31,9.46-12.33,15.07-17.69
			c2.69-2.57,5.55-4.98,8.69-6.98c3.2-2.02,6.63-3.68,10.13-5.11c3.92-1.61,7.94-2.99,11.93-4.41c0.12-0.04,0.23-0.08,0.35-0.13
			c3.87-0.59,7.75-1.12,11.61-1.73c0.63-0.1,1.28-0.23,1.92-0.39c-1.05,4.01-2.67,7.82-4.45,11.57c-1.97,4.16-4.03,8.28-6.08,12.41
			c-3.55,7.16-7.55,14.32-12.93,20.28c-5.33,5.92-11.53,11.02-18.49,14.92C75.03,92.73,66.61,95.87,57.95,98.03z M246.09,240.15
			c-0.16,6.62-1.63,13.45-3.63,19.74c-2.01,6.3-4.74,12.37-8.27,17.96c-3.45,5.47-7.63,10.45-12.46,14.76
			c-4.72,4.22-10.06,7.33-15.62,10.3c-5.94,3.18-11.97,6.21-18.15,8.91c-3.38,1.47-6.85,2.87-10.38,4.01
			c-5.68,0.76-11.44,0.82-17.16,0.13c-5.28-0.63-10.53-1.88-15.55-3.62c-4.79-1.66-9.54-3.6-13.73-6.49
			c-3.54-2.44-6.79-5.52-9.73-8.64c-3.2-3.4-6.06-7.09-8.75-10.89c-5.64-7.97-10.59-16.49-14.79-25.3
			c-2.31-4.85-4.27-9.88-5.84-15.02c-1.55-5.08-2.1-10.37-2.82-15.61c-1.42-10.33-2.05-20.8-1.75-31.22
			c0.16-5.38,0.59-10.75,0.3-16.12c-0.15-2.74,0.47-5.66,0.82-8.38c0.34-2.67,0.84-5.32,1.33-7.97c0.92-4.99,2.2-9.81,3.99-14.57
			c1.61-4.29,3.38-8.53,4.72-12.92c1.37-4.5,2.86-8.83,3.47-13.3c0.63-4.6,0.87-9.23,1.29-13.85c0.37-4.13,0.76-8.23,1.74-12.27
			c0.54-2.22,0.5-4.53,0.66-6.81c0.19-2.65,0.25-5.3,0.46-7.95c0.21-2.65,0.58-5.31,1.15-7.91c0.27-1.22-1.58-2.18-2.14-0.9
			c-2.18,5.04-2.57,10.46-3.38,15.83c-0.17,1.16-0.35,2.3-0.73,3.4c-0.38,1.09-0.82,2.11-1.14,3.23c-0.56,1.99-0.96,4.02-1.25,6.07
			c-0.67,4.74-1.05,9.51-1.44,14.28c-0.18,2.22-0.32,4.45-0.46,6.67c-0.13,2.07-0.13,4.19-0.37,6.24
			c-0.57,4.91-2.38,9.48-4.21,14.03c-1.81,4.5-3.58,9.02-4.77,13.73c-1.35,5.39-1.88,11-2.65,16.5c-0.19,1.33-0.37,2.67-0.53,4
			c-0.19,1.47-0.57,2.79-0.93,4.22c-0.67,2.68-0.85,5.5-1.06,8.25c-0.86,10.87-0.75,22.07,0.96,32.85c0.84,5.3,2.1,10.46,3.71,15.57
			c1.65,5.21,3.04,10.5,4.9,15.65c1.83,5.06,3.73,10.16,6.2,14.95c2.25,4.36,4.73,8.6,7.37,12.73c2.73,4.27,5.67,8.41,8.83,12.37
			c2.83,3.54,5.88,7.05,9.43,9.9c8.29,6.67,18.77,10.01,29.1,11.99c1.12,0.22,2.25,0.4,3.38,0.57c-1.58,0.07-3.16,0.11-4.74,0.14
			c-6.73,0.15-13.48-0.12-20.17-0.87c-5.81-0.65-11.65-1.7-17.16-3.68c-5.92-2.12-11.62-4.93-17.05-8.08
			c-11.63-6.74-22.66-15.2-30.88-25.93c-3.56-4.65-6.43-9.73-8.05-15.36c-2.26-7.87-3.94-15.93-5.28-24.01
			c-2.22-13.39-2.93-27.6-0.51-41c2.53-14.04,7.38-27.68,12.82-40.84c2.81-6.8,6.17-13.52,8.29-20.58
			c1.12-3.75,2.02-7.57,3.15-11.32c1.09-3.63,2.1-7.29,3.05-10.97c1.88-7.21,3.6-14.48,5.68-21.63c0.49-1.69,1.07-3.34,1.69-4.98
			c5.02-3.35,9.7-7.21,13.94-11.51c5.92-6,11.57-12.57,15.99-19.76c3.41-5.54,6.61-11.45,8.93-17.64c3.27-1.61,6.59-3.11,10.04-4.4
			c6.25-2.33,12.54-3.29,19.2-2.68c3.59,0.33,7.14,1.02,10.64,1.87c2.66,0.65,5.53,1.37,7.84,2.92c2.32,1.57,4.18,3.76,6.13,5.74
			c2.07,2.1,3.9,4.4,5.56,6.83c3.33,4.89,6.07,10.23,8.09,15.79c2.12,5.81,3.48,11.94,5.1,17.9c1.93,7.08,3.85,14.29,4.56,21.61
			c0.18,1.89,0.24,3.77,0.25,5.65c-0.19,1.42-0.41,2.83-0.64,4.24c-0.61,3.68-1.44,7.35-1.58,11.09c-0.17,4.41,0.92,8.54,3.38,12.22
			c0.36,0.54,0.89,0.77,1.4,0.77c1.18,1.85,2.45,3.67,3.72,5.4c4.01,5.49,8.3,10.77,12.3,16.28c8.25,11.39,15.39,23.47,19.4,37.04
			c2.43,8.21,3.81,16.54,4.43,24.97c-1.66,1.5-3.59,2.76-5.6,3.81c-1.74-0.62-3.62-0.88-5.44-0.73c-1.78,0.15-3.56,0.93-5.1,1.83
			c-1.26,0.74-2.28,1.77-1.85,3.35c0.27,0.98,1.1,1.74,1.85,2.36c0.94,0.77,1.97,1.48,3.22,2.03c0.19,0.08,0.4,0.15,0.6,0.22
			c-0.03,0.27-0.06,0.54-0.17,0.81c-0.21,0.52-0.49,1.01-0.68,1.53c-0.39,1.06-0.55,2.22-0.45,3.35c0.08,0.89,0.67,1.55,1.59,1.59
			c5.16,0.22,8.58-4.95,8.38-9.73c0-0.03-0.01-0.05-0.01-0.08c0.11-0.42,0.1-0.84,0.01-1.25c0.7-0.35,1.37-0.8,1.92-1.12
			c0.7-0.41,1.38-0.85,2.05-1.31C246.16,234.14,246.16,237.14,246.09,240.15z M237.85,238.64c-0.54,1.07-1.33,1.98-2.35,2.46
			c0.04-0.13,0.07-0.25,0.12-0.38c0.08-0.23,0.28-0.84,0.4-0.96c0.14-0.15,0.77-0.4,1.05-0.58
			C237.33,239.01,237.59,238.83,237.85,238.64z M234.75,232.34c-0.25,0-0.51-0.01-0.76-0.01c-0.86,0-1.49-0.09-2.09-0.22
			c0.27-0.07,0.54-0.1,0.83-0.09C233.4,232.07,234.08,232.19,234.75,232.34z M250.33,216.04c-0.03,0.61-0.09,1.02-0.32,1.88
			c-0.14,0.52-0.42,1.32-0.55,1.63c-0.03-0.37-0.04-0.75-0.06-1.12c-0.25-3.3-0.62-6.62-1.15-9.9c0.65,1.08,1.21,2.2,1.57,3.41
			C250.29,213.49,250.42,214.44,250.33,216.04z"/>
	</g>
</g>
</svg>
